<svg xmlns="http://www.w3.org/2000/svg" viewBox="0 0 1200 720" role="img" aria-label="Prototype architecture preview diagram">
  <rect width="1200" height="720" rx="32" fill="#f7faff"/>
  <rect x="56" y="58" width="1088" height="604" rx="30" fill="#ffffff" stroke="#d9e5fb"/>
  <text x="92" y="112" fill="#0b51a8" font-family="IBM Plex Mono, monospace" font-size="24" font-weight="700">PROTOTYPE FLOW</text>
  <rect x="92" y="156" width="192" height="110" rx="24" fill="#edf5ff" stroke="#d8e7fb"/>
  <text x="122" y="214" fill="#122038" font-family="Manrope, Arial, sans-serif" font-size="30" font-weight="700">Agents</text>
  <text x="122" y="246" fill="#51617f" font-family="Manrope, Arial, sans-serif" font-size="20">A / B / C simulator</text>
  <rect x="360" y="132" width="256" height="160" rx="26" fill="#dcebff" stroke="#cfe2ff"/>
  <text x="396" y="186" fill="#0b51a8" font-family="IBM Plex Mono, monospace" font-size="22" font-weight="700">TIR + SFM + SDE</text>
  <text x="396" y="228" fill="#122038" font-family="Manrope, Arial, sans-serif" font-size="24" font-weight="700">Fingerprint and match</text>
  <text x="396" y="260" fill="#51617f" font-family="Manrope, Arial, sans-serif" font-size="18">Exact hash first, embeddings for NL</text>
  <rect x="694" y="132" width="212" height="160" rx="26" fill="#dcebff" stroke="#cfe2ff"/>
  <text x="728" y="186" fill="#0b51a8" font-family="IBM Plex Mono, monospace" font-size="22" font-weight="700">TAC + CM</text>
  <text x="728" y="228" fill="#122038" font-family="Manrope, Arial, sans-serif" font-size="24" font-weight="700">Admission window</text>
  <text x="728" y="260" fill="#51617f" font-family="Manrope, Arial, sans-serif" font-size="18">Collapse sister tasks into one SEU</text>
  <rect x="976" y="156" width="112" height="110" rx="24" fill="#0f6cda"/>
  <text x="998" y="214" fill="#ffffff" font-family="Manrope, Arial, sans-serif" font-size="28" font-weight="700">SEU</text>
  <text x="992" y="246" fill="#dbeafe" font-family="Manrope, Arial, sans-serif" font-size="18">run once</text>
  <rect x="360" y="408" width="284" height="132" rx="28" fill="#edf5ff" stroke="#d8e7fb"/>
  <text x="396" y="456" fill="#0b51a8" font-family="IBM Plex Mono, monospace" font-size="22" font-weight="700">WIP-Cache</text>
  <text x="396" y="496" fill="#122038" font-family="Manrope, Arial, sans-serif" font-size="24" font-weight="700">Redis mirror + active state</text>
  <text x="396" y="526" fill="#51617f" font-family="Manrope, Arial, sans-serif" font-size="18">Lock simulation and task subscriber records</text>
  <rect x="744" y="408" width="304" height="132" rx="28" fill="#edf5ff" stroke="#d8e7fb"/>
  <text x="780" y="456" fill="#0b51a8" font-family="IBM Plex Mono, monospace" font-size="22" font-weight="700">SEU-M + RFM</text>
  <text x="780" y="496" fill="#122038" font-family="Manrope, Arial, sans-serif" font-size="24" font-weight="700">Execute once, fan out result</text>
  <text x="780" y="526" fill="#51617f" font-family="Manrope, Arial, sans-serif" font-size="18">Metrics track dedup multiplier and executions saved</text>
  <path d="M284 212H360" stroke="#58a8ff" stroke-width="6" stroke-linecap="round"/>
  <path d="M616 212H694" stroke="#58a8ff" stroke-width="6" stroke-linecap="round"/>
  <path d="M906 212H976" stroke="#58a8ff" stroke-width="6" stroke-linecap="round"/>
  <path d="M1032 266V344H898V408" stroke="#58a8ff" stroke-width="6" stroke-linecap="round" fill="none"/>
  <path d="M1032 266V344H502V408" stroke="#58a8ff" stroke-width="6" stroke-linecap="round" fill="none"/>
</svg>
