<svg xmlns="http://www.w3.org/2000/svg" viewBox="0 0 1200 630" role="img" aria-label="WDC-Engine social preview card">
  <defs>
    <linearGradient id="bg" x1="0%" y1="0%" x2="100%" y2="100%">
      <stop offset="0%" stop-color="#f7faff"/>
      <stop offset="100%" stop-color="#edf4ff"/>
    </linearGradient>
    <linearGradient id="panel" x1="0%" y1="0%" x2="100%" y2="100%">
      <stop offset="0%" stop-color="#59abff"/>
      <stop offset="100%" stop-color="#0f6cda"/>
    </linearGradient>
  </defs>
  <rect width="1200" height="630" rx="36" fill="url(#bg)"/>
  <circle cx="115" cy="96" r="84" fill="#dcecff"/>
  <circle cx="1070" cy="92" r="66" fill="#eef4ff"/>
  <rect x="74" y="78" width="1052" height="474" rx="30" fill="#ffffff" stroke="#d8e5fa"/>
  <rect x="108" y="112" width="84" height="84" rx="26" fill="url(#panel)"/>
  <circle cx="136" cy="141" r="7" fill="#fff"/>
  <circle cx="164" cy="141" r="7" fill="#fff"/>
  <circle cx="150" cy="170" r="7" fill="#fff"/>
  <path d="M136 141L164 141L150 170Z" fill="none" stroke="#fff" stroke-width="4" stroke-linecap="round" stroke-linejoin="round"/>
  <text x="222" y="136" fill="#0b51a8" font-family="IBM Plex Mono, monospace" font-size="20" font-weight="700" letter-spacing="2">PUBLIC TECHNICAL OVERVIEW</text>
  <text x="108" y="274" fill="#122038" font-family="Fraunces, Georgia, serif" font-size="54" font-weight="600">WDC-Engine</text>
  <text x="108" y="330" fill="#122038" font-family="Manrope, Arial, sans-serif" font-size="30" font-weight="700">Semantic Deduplication and Shared Execution</text>
  <text x="108" y="380" fill="#51617f" font-family="Manrope, Arial, sans-serif" font-size="24">Collapse equivalent agent-generated enterprise tasks before backend execution begins.</text>
  <text x="108" y="416" fill="#51617f" font-family="Manrope, Arial, sans-serif" font-size="24">Execute once. Fan out full results to every subscribed agent.</text>
  <rect x="108" y="466" width="316" height="46" rx="23" fill="#e6f1ff"/>
  <text x="132" y="496" fill="#0b51a8" font-family="IBM Plex Mono, monospace" font-size="18" font-weight="700">hash + embeddings + temporal admission</text>
  <rect x="712" y="184" width="312" height="196" rx="28" fill="#f4f8ff" stroke="#dbe7fb"/>
  <text x="742" y="228" fill="#0b51a8" font-family="IBM Plex Mono, monospace" font-size="18" font-weight="700">FLOW</text>
  <text x="742" y="270" fill="#122038" font-family="Manrope, Arial, sans-serif" font-size="28" font-weight="700">Agents -> WDC</text>
  <text x="742" y="314" fill="#122038" font-family="Manrope, Arial, sans-serif" font-size="28" font-weight="700">Match -> SEU</text>
  <text x="742" y="358" fill="#122038" font-family="Manrope, Arial, sans-serif" font-size="28" font-weight="700">Run once -> Fan-out</text>
  <text x="108" y="584" fill="#7183a2" font-family="Manrope, Arial, sans-serif" font-size="18">Derived from the patent specification for public technical presentation.</text>
</svg>
